# xmcd
#
# Track frame offsets:
#	150
#	20266
#	38417
#	58059
#	75926
#	91231
#	113324
#	131279
#	150445
#	172581
#	192509
#	202878
#	220892
#
# Disc length: 3165 seconds
#
# Revision: 0
# Processed by: cddbd v1.5.2PL0 Copyright (c) Steve Scherf et al.
# Submitted via: EasyCDDAExtractor 10.2.0.1
#
DISCID=890c5b0d
DTITLE=Stanley James - Household Name
DYEAR=2004
DGENRE=Soul
TTITLE0=I'm Not The One (Slow Mix)
TTITLE1=Taking It Back
TTITLE2=Everythang
TTITLE3=Ooh I Like
TTITLE4=Everytime
TTITLE5=Checkin Me
TTITLE6=Love Beat The Hell Outta Me
TTITLE7=Gone Away
TTITLE8=Ghetto Love
TTITLE9=Shine
TTITLE10=Celibrate Our Love
TTITLE11=B4 I Was A Star
TTITLE12=See You When I Get There
EXTD=
EXTT0=
EXTT1=
EXTT2=
EXTT3=
EXTT4=
EXTT5=
EXTT6=
EXTT7=
EXTT8=
EXTT9=
EXTT10=
EXTT11=
EXTT12=
PLAYORDER=
